<?xml version='1.0' encoding='iso-8859-1'?>
<!DOCTYPE svg PUBLIC '-//W3C//DTD SVG 1.1//EN' 'http://www.w3.org/Graphics/SVG/1.1/DTD/svg11.dtd'>
<svg version="1.1" xmlns="http://www.w3.org/2000/svg" viewBox="0 0 297 297" xmlns:xlink="http://www.w3.org/1999/xlink" enable-background="new 0 0 297 297">
  <path d="m292.891,116.461c-3.772-2.595-8.549-2.515-11.974,0.486-0.696,0.414-3.782,2.03-9.441,2.03-6.382,0-13.646-2.015-21.588-5.989-7.005-3.504-14.304-9.243-22.029-15.318-14.235-11.193-28.956-22.77-45.534-22.77-9.822,0-18.921,4.121-27.043,12.25l-6.78,6.785-6.78-6.785c-8.122-8.129-17.221-12.25-27.043-12.25-16.576,0-31.297,11.576-45.534,22.77-7.727,6.076-15.025,11.814-22.03,15.319-7.941,3.974-15.205,5.988-21.588,5.988-5.66,0-8.748-1.617-9.444-2.031-3.426-3-8.202-3.077-11.973-0.483-3.817,2.627-5.055,7.763-3.375,12.081 0.377,0.969 9.489,23.99 32.228,46.995 20.996,21.24 58.084,46.561 115.539,46.561s94.543-25.32 115.538-46.561c22.739-23.005 31.852-46.027 32.227-46.996 1.68-4.318 0.441-9.456-3.376-12.082zm-211.397-3.084c11.563-9.093 23.522-18.495 33.184-18.495 2.801,0 7.185,0.663 12.908,6.392l13.848,13.859c1.874,1.875 4.417,2.929 7.067,2.929 2.651,0 5.193-1.054 7.067-2.929l13.848-13.859c5.724-5.729 10.107-6.392 12.908-6.392 9.662,0 21.62,9.402 33.184,18.495 8.171,6.426 16.62,13.068 25.439,17.481 1.63,0.815 3.244,1.547 4.852,2.24-20.828,6.299-52.229,12.094-97.297,12.094-45.066,0-76.468-5.795-97.297-12.094 1.607-0.693 3.221-1.425 4.851-2.24 8.816-4.412 17.267-11.055 25.438-17.481zm67.007,88.742c-40.282,0-74.181-13.475-100.752-40.048-4.303-4.303-8.047-8.618-11.297-12.754 22.705,8.018 58.574,15.856 112.049,15.856s89.344-7.838 112.048-15.856c-3.25,4.137-6.993,8.452-11.296,12.755-26.571,26.573-60.47,40.047-100.752,40.047z"/>
</svg>
